Coordinates
version=1
nRows=25
nColumns=21
inDegrees=yes

Units are S.I. units (second, meters, Newtons, ...)
If the header above contains a line with 'inDegrees', this indicates whether rotational values are in degrees (yes) or radians (no).

endheader
time	bJoint_3	seatpos	slocangle	soarinout	sblpos	plocangle	poarinout	pblpos	hipangle	kneeangle	footangle	lbackangle	uarmleft_out	uarmleft_trn	uarmleft_up	se_inout	se_updown	handleleft_out	handleleft_trn	handleleft_up
      5.22500000	     -0.00000008	     -0.00337901	    -30.44114735	     13.81594993	    -13.81594993	    -31.68450240	     11.78973857	    -11.78973857	     93.45613350	      5.04159929	      8.49773279	    -40.27692690	     69.02679151	     -9.66563492	     60.59223548	     25.91374792	    -76.39930035	     -0.21948742	    -79.01538126	    -20.82249092
      5.23000000	     -0.00000008	     -0.00338340	    -30.18570936	     13.81361828	    -13.81361828	    -31.39193894	     11.79501497	    -11.79501497	     93.45057423	      5.05195305	      8.50252728	    -40.27907602	     68.60461004	     -9.06467701	     61.21478236	     26.22880685	    -75.05421582	     -0.06472198	    -79.43315709	    -20.45546547
      5.23500000	     -0.00000008	     -0.00337740	    -29.94504290	     13.81420270	    -13.81420270	    -31.15513591	     11.79300959	    -11.79300959	     93.45961472	      5.03514004	      8.49475477	    -40.28261519	     68.19132288	     -8.50042404	     61.80160451	     26.41370104	    -73.77394846	      0.31079613	    -79.75364200	    -19.87795096
      5.24000000	     -0.00000008	     -0.00340707	    -29.71842525	     13.80975542	    -13.80975542	    -30.88470305	     11.77955452	    -11.77955452	     93.41520005	      5.11774219	      8.53294224	    -40.28237848	     67.72238468	     -8.03248450	     62.56337719	     26.65828007	    -72.54624826	      0.92444882	    -80.30142413	    -19.12738725
      5.24500000	     -0.00000008	     -0.00344555	    -29.47537134	     13.79112610	    -13.79112610	    -30.59183693	     11.78382483	    -11.78382483	     93.35865729	      5.22290816	      8.58156545	    -40.28130216	     67.22841204	     -7.52376514	     63.68109716	     27.53786387	    -71.07043578	      0.50330169	    -81.52569490	    -19.37074276
      5.25000000	     -0.00000008	     -0.00344060	    -29.26775651	     13.78565226	    -13.78565226	    -30.35544989	     11.78117037	    -11.78117037	     93.36586593	      5.20950004	      8.57536597	    -40.28410738	     66.86826934	     -7.02740772	     64.69122593	     28.67215665	    -69.68753969	     -1.60499185	    -82.83685522	    -21.25641799
      5.25500000	     -0.00000008	     -0.00348227	    -29.04462542	     13.78091880	    -13.78091880	    -30.11917764	     11.77832278	    -11.77832278	     93.30573419	      5.32134999	      8.62708418	    -40.28235031	     66.40532424	     -6.55602952	     65.64339190	     29.09176030	    -68.34676852	     -1.50328092	    -83.63248494	    -21.00013373
      5.26000000	     -0.00000008	     -0.00356563	    -28.80721946	     13.77647486	    -13.77647486	    -29.85036110	     11.76393078	    -11.76393078	     93.18910562	      5.53831778	      8.72742340	    -40.27562866	     66.13877041	     -5.90151204	     66.13350162	     29.27125006	    -66.97530346	     -1.27686699	    -83.77878357	    -20.46552897
      5.26500000	     -0.00000008	     -0.00358280	    -28.57340041	     13.77702495	    -13.77702495	    -29.55757210	     11.76713444	    -11.76713444	     93.16564436	      5.58196815	      8.74761250	    -40.27612089	     65.73178623	     -5.33011737	     66.23143829	     28.17082283	    -65.87602690	      3.13458844	    -82.87553216	    -15.83357003
      5.27000000	     -0.00000008	     -0.00364441	    -28.35455116	     13.77203288	    -13.77203288	    -29.32180626	     11.76366556	    -11.76366556	     93.08293663	      5.73586065	      8.81879728	    -40.27293755	     65.27494137	     -4.85663172	     67.12043406	     28.37757068	    -64.54851793	      4.38402963	    -83.49326510	    -14.41287832
      5.27500000	     -0.00000008	     -0.00365726	    -28.15278878	     13.76639471	    -13.76639471	    -29.08620734	     11.75994964	    -11.75994964	     93.06597118	      5.76743028	      8.83340146	    -40.27342871	     64.91841500	     -4.35467426	     68.86508309	     30.32988688	    -62.76112570	     -0.94229195	    -85.83735979	    -19.48392662
      5.28000000	     -0.00000008	     -0.00366526	    -27.96783711	     13.77437628	    -13.77437628	    -28.85077546	     11.75604436	    -11.75604436	     93.05544944	      5.78700975	      8.84245919	    -40.27417460	     64.58710868	     -3.88931089	     69.80389829	     30.90778957	    -61.42848393	     -3.25376285	    -86.70583511	    -21.57567634
      5.28500000	     -0.00000008	     -0.00374492	    -27.75309447	     13.76931053	    -13.76931053	    -28.61546801	     11.75200933	    -11.75200933	     92.95261298	      5.97839016	      8.93100314	    -40.26959442	     64.13463450	     -3.41283703	     70.87526312	     31.14527594	    -59.99196907	     -2.21525085	    -87.47137980	    -20.35857185
      5.29000000	     -0.00000008	     -0.00377183	    -27.55519939	     13.76377754	    -13.76377754	    -28.38035293	     11.74774454	    -11.74774454	     92.91860511	      6.04168594	      8.96029105	    -40.26883073	     63.77961790	     -2.90762693	     71.82123647	     31.43483547	    -58.57336864	     -2.21498972	    -88.13554247	    -20.11687394
      5.29500000	     -0.00000008	     -0.00378128	    -27.33202516	     13.75823101	    -13.75823101	    -28.14541390	     11.74329560	    -11.74329560	     92.90674616	      6.06375869	      8.97050485	    -40.26919879	     63.46541959	     -2.25912936	     72.67121681	     31.66203278	    -56.95230342	     -1.90199280	    -88.60138603	    -19.44340403
      5.30000000	     -0.00000008	     -0.00386093	    -27.15055190	     13.74643654	    -13.74643654	    -27.94131573	     11.75018780	    -11.75018780	     92.80849222	      6.24665135	      9.05514358	    -40.26474195	     63.06448865	     -1.85126229	     73.89705218	     32.02735136	    -55.55060649	     -1.57266197	    -89.57791213	    -18.95591766
      5.30500000	     -0.00000008	     -0.00388163	    -26.94382572	     13.74131522	    -13.74131522	    -27.70685299	     11.74564072	    -11.74564072	     92.78341404	      6.29333688	      9.07675092	    -40.27284441	     62.55994034	     -1.37746048	     75.39456912	     32.39611146	    -53.86071185	     -1.62818037	    -90.76705526	    -18.81448858
      5.31000000	     -0.00000008	     -0.00386660	    -26.76626954	     13.74957528	    -13.74957528	    -27.47190074	     11.74038628	    -11.74038628	     92.80160305	      6.25947607	      9.06107912	    -40.26669504	     62.22732067	     -0.90157416	     76.31812939	     32.57125333	    -52.49521573	     -1.73988997	    -91.38709242	    -18.68298722
      5.31500000	     -0.00000008	     -0.00399334	    -26.56210385	     13.74485138	    -13.74485138	    -27.23750417	     11.73520646	    -11.73520646	     92.65124088	      6.53941975	      9.19066062	    -40.25919806	     61.78339783	     -0.42038425	     77.74451266	     32.87355178	    -50.85778278	     -1.93489353	    -92.46721189	    -18.68557927
      5.32000000	     -0.00000008	     -0.00406000	    -26.37417886	     13.74005520	    -13.74005520	    -27.00332541	     11.72981031	    -11.72981031	     92.57468283	      6.68197937	      9.25666220	    -40.25583207	     61.43149478	      0.09053951	     78.90921718	     33.06601429	    -49.30294762	     -2.22948578	    -93.25641221	    -18.72177707
      5.32500000	     -0.00000009	     -0.00411819	    -26.20104352	     13.74829013	    -13.74829013	    -26.85717158	     11.73002648	    -11.73002648	     92.50918091	      6.80396447	      9.31314538	    -40.25295330	     61.10209302	      0.56693443	     79.87913036	     33.14790568	    -47.91271958	     -2.52691637	    -93.87892226	    -18.77217714
      5.33000000	     -0.00000009	     -0.00416614	    -26.04319559	     13.73640934	    -13.73640934	    -26.62328505	     11.72436274	    -11.72436274	     92.45608038	      6.90286298	      9.35894335	    -40.25067288	     60.79650617	      1.00971658	     80.98294423	     33.27794538	    -46.51375079	     -2.89768729	    -94.61865386	    -18.91308950
      5.33500000	     -0.00000009	     -0.00425890	    -25.86082619	     13.73221920	    -13.73221920	    -26.38964568	     11.71849271	    -11.71849271	     92.35546209	      7.09028374	      9.44574583	    -40.24617575	     60.44638024	      1.52159817	     82.15664591	     33.34180443	    -44.95651244	     -3.34590404	    -95.37408046	    -19.09691333
      5.34000000	     -0.00000009	     -0.00434228	    -25.69259158	     13.74090161	    -13.74090161	    -26.18494607	     11.72407355	    -11.72407355	     92.26724340	      7.25463104	      9.52187445	    -40.24241746	     60.11757010	      1.99951254	     83.14365672	     33.32558639	    -43.55917678	     -3.69472133	    -95.98682993	    -19.19181092
      5.34500000	     -0.00000009	     -0.00437125	    -25.42693453	     13.73521252	    -13.73521252	    -25.95162326	     11.71790301	    -11.71790301	     92.23705208	      7.31088105	      9.54793312	    -40.04745731	     59.69816010	      2.53942030	     84.77429024	     33.57367781	    -41.84803242	     -4.31404027	    -97.12210208	    -19.73102107
